<svg width="699" height="333" viewBox="0 0 699 333" fill="none" xmlns="http://www.w3.org/2000/svg">
<path d="M100.372 140.346C92.5987 132.235 84.4878 128.518 72.6595 128.518C61.1692 128.518 53.0584 132.235 45.2855 140.346C37.5126 148.457 33.4572 156.906 33.4572 169.41C33.4572 181.914 37.5126 190.363 45.2855 198.474C53.0584 206.584 61.1692 210.302 72.6595 210.302C84.4878 210.302 92.5987 206.584 100.372 198.474C108.144 190.363 111.862 181.914 111.862 169.41C111.862 156.906 108.144 148.457 100.372 140.346ZM26.0222 121.759C37.1746 110.268 55.424 101.819 72.9975 101.819C87.1914 101.819 102.061 107.565 113.214 116.013V101.819H138.898V237C139.236 239.366 139.236 241.055 139.236 241.393C139.912 258.629 132.815 277.216 122 289.044C111.186 300.873 93.6125 309.66 76.377 310.335C59.1415 311.011 40.5542 303.914 28.7259 293.438C16.8976 282.623 7.77288 264.712 7.09698 247.476C6.75903 244.097 6.75903 239.028 7.43493 236.324C8.11083 236.662 25.6843 237.676 33.1192 236.662C32.7813 238.69 33.1192 244.097 33.1192 246.125C33.7951 257.953 37.8505 265.726 45.9614 273.161C54.4102 280.596 62.8589 283.975 75.0252 283.637C87.1914 282.961 95.3023 278.906 103.075 270.457C110.172 262.684 113.552 254.911 113.214 244.097V222.806C102.061 231.255 87.1914 237 72.9975 237C55.424 237 37.1746 228.551 26.0222 217.061C14.8699 205.571 6.75903 186.983 6.75903 169.41C6.75903 151.836 14.8699 133.249 26.0222 121.759ZM152.97 237V101.819H181.696V237H152.97ZM167.84 58.5617C158.716 58.5617 151.281 66.3346 151.281 75.1213C151.281 83.9081 159.054 91.343 167.84 91.343C176.289 91.343 183.724 84.246 183.724 75.1213C183.724 65.9966 176.627 58.5617 167.84 58.5617ZM197.187 101.819H294.855V124.124L260.046 123.786L257.342 237H233.009V124.124L197.187 124.462V101.819ZM344.23 138.656C336.457 147.105 332.739 155.554 332.739 168.058C332.739 180.224 336.457 189.011 344.23 197.122C352.003 205.233 360.113 208.95 371.942 208.95C383.432 208.95 391.543 205.233 399.316 197.122C407.089 189.011 411.144 180.224 411.144 168.058C411.144 155.554 407.089 147.105 399.316 138.656C391.543 130.883 383.432 127.166 371.942 127.166C360.113 127.166 352.003 130.883 344.23 138.656ZM305.703 168.396C305.703 151.16 313.476 132.573 324.629 121.421C335.781 109.93 354.03 101.482 371.266 101.482C385.46 101.482 400.33 107.227 411.144 115.338V33.8913H436.828V175.155H436.49C434.801 190.701 427.366 205.908 417.903 215.709C406.751 227.199 388.501 235.648 371.266 235.648C354.03 235.648 335.781 227.199 324.629 215.709C313.476 204.557 305.703 185.969 305.703 168.396Z" fill="white"/>
<path d="M592.759 101.819H690.427V124.124L655.618 123.786L652.914 237H628.582V124.124L592.759 124.462V101.819Z" fill="white"/>
<path d="M581.457 175.262C581.457 209.425 553.763 237.119 519.6 237.119C485.437 237.119 457.743 209.425 457.743 175.262C457.743 141.099 485.437 113.405 519.6 113.405C553.763 113.405 581.457 141.099 581.457 175.262Z" fill="white"/>
</svg>
